<svg xmlns="http://www.w3.org/2000/svg" viewBox="0 0 93.88 81.58"><defs><style>.cls-1{fill:#c8ac2e;fill-rule:evenodd;}</style></defs><g id="Layer_2" data-name="Layer 2"><g id="Layer_1-2" data-name="Layer 1"><path class="cls-1" d="M93,28.31c-1.06-8.19-3.07-16.19-8.39-22.86-5.66-7.1-13.47-7.32-18.91-.11C63.07,8.76,61.56,13,59.49,16.81c-.42.79-1.19,2-1.81,2-7,.15-14.07.09-21.7.09l-6.61-.09a8.19,8.19,0,0,0-.51-2.34C27,12.52,25.67,8.65,23.53,5.28c-4.49-7.07-11.48-7-16,.09a32.73,32.73,0,0,0-4.34,9.92c-1.13,4.91-2,9.89-2.81,15a140.14,140.14,0,0,0,0,21.38c0,.45.09.89.15,1.33.17,1.41.28,2.84.47,4.26,0,.18.05.36.07.55L1.29,59s0,0,0,0a20.41,20.41,0,0,0,.64,2.59c1.73,5.18,3.31,10.59,6.11,15.2C12,83.26,18.68,83.05,23.11,77a28.22,28.22,0,0,0,3.14-5.73c1.11-2.66,1.92-5.46,3-8.55,9.37,0,18.64-.06,27.9.09.82,0,1.87,1.2,2.37,2.09,2.25,4,3.83,8.39,6.58,11.93,5,6.44,12.77,6.39,17.85,0a38.81,38.81,0,0,0,6-10.83C94.31,53.7,94.61,41,93,28.31ZM21.82,64.63A36.42,36.42,0,0,1,18,73.1c-1.66,2.74-3.54,2.84-4.87,0A79.43,79.43,0,0,1,7.94,58.57C6.78,53.88,6.59,49,6,44.15l1.27-.46a17.94,17.94,0,0,1,1.29,2.55c.74,2.25,1.05,4.7,2.1,6.78,2.31,4.57,7.28,4.81,9.43.27a28.46,28.46,0,0,0,0-25c-2.07-4.42-7-4.33-9.29,0C9.65,30.41,9.33,33,8.54,35.33a17.6,17.6,0,0,1-1.3,2.56l-1-.45C6.7,28,7.47,18.61,12,10c.75-1.43,2.46-3.34,3.64-3.28s3,2,3.5,3.47C21,16,23.1,21.84,24,27.84A85.69,85.69,0,0,1,21.82,64.63Zm8.94-8.35v-31h-.05c-.2.2-.12,0,0,0l.05-.05v0c.69-.05,1.39,0,2.05,0C35.58,38,34.46,54.37,30.76,56.28Zm11.6-3.19c-.37,1.58-.39,4.09-3.57,3.06,2.68-10.28,1.91-20.44.86-30.78l2.66-.27C43.86,34.52,44.49,43.81,42.36,53.09Zm9.43-.27c-.37,1.65-.29,4.33-3.6,3.36,2.62-10.19,2-20.42.82-30.85l2.69-.19C53.22,34.46,53.85,43.65,51.79,52.82Zm9.36.1c-.36,1.58-.26,4.12-3.56,3.31,2.57-10.11,1.95-20.32.8-30.93h2.73C62.59,34.55,63.25,43.74,61.15,52.92ZM83.63,64.45A29.18,29.18,0,0,1,78.73,73c-2.33,3-5.09,3-7.38.15S67.29,66.62,65.1,63c9.17-.94,10.4-1.87,12-10.16a61.82,61.82,0,0,0-.43-26c-1.51-6.44-3.09-7.51-10.83-8.08,1.23-4.17,2.82-8,6.06-10.93C74,5.84,76.52,5.85,78.21,8a32,32,0,0,1,5.37,9A72.92,72.92,0,0,1,83.63,64.45ZM67.8,25.28l.82-.31a8.05,8.05,0,0,1,1.44,2.14,51.15,51.15,0,0,1,0,27.31c-.25.93-1.45,1.6-2.64,2.11C69.61,46,68.86,35.64,67.8,25.28Z"/></g></g></svg>