<svg xmlns="http://www.w3.org/2000/svg" viewBox="0 0 100.05 88.83"><defs><style>.cls-1,.cls-2{fill:#b12024;}.cls-1{fill-rule:evenodd;}</style></defs><g id="Layer_2" data-name="Layer 2"><g id="Layer_1-2" data-name="Layer 1"><path class="cls-1" d="M54.17,38.3c-.29,6.83-.56,13.31-.84,19.78C53.25,59.87,52,61,50,61s-3.26-1-3.33-2.86c-.3-7.87-.6-15.73-.83-23.59-.08-2.71,1.43-4.13,4.16-4.15s4.19,1.44,4.22,4.12C54.18,35.88,54.17,37.27,54.17,38.3Z"/><path class="cls-1" d="M50,74.13a4.53,4.53,0,1,1,4.54-4.4A4.65,4.65,0,0,1,50,74.13Z"/><path class="cls-2" d="M91.51,88.83h-83c-3.49,0-6.28-1.36-7.65-3.73s-1.15-5.46.59-8.48L43,4.75C44.72,1.73,47.29,0,50,0s5.31,1.73,7.06,4.75L98.57,76.62c1.74,3,2,6.11.59,8.48S95,88.83,91.51,88.83ZM50,4.81c-1,0-2,.86-2.88,2.35L5.65,79c-.86,1.49-1.08,2.83-.59,3.68S6.81,84,8.54,84h83c1.73,0,3-.48,3.48-1.32s.27-2.19-.59-3.68L52.91,7.16C52.05,5.67,51,4.81,50,4.81Z"/></g></g></svg>