<svg xmlns="http://www.w3.org/2000/svg" viewBox="0 0 110.82 88.55"><defs><style>.cls-1{fill:#158c52;fill-rule:evenodd;}</style></defs><g id="Layer_2" data-name="Layer 2"><g id="Layer_1-2" data-name="Layer 1"><path class="cls-1" d="M110.82,44.45q-3.36,4.36-6.74,8.72-7.5,9.73-15,19.48c-.3.39-.44.45-.77,0q-8.05-10.5-16.14-21l-5.3-6.88c-.1-.13-.26-.22-.25-.43a1.72,1.72,0,0,1,.71,0c3.23,0,6.46,0,9.69,0,.44,0,.57-.11.56-.55a22.14,22.14,0,0,0-18-21.19,21.73,21.73,0,0,0-15.73,2.9A14.12,14.12,0,0,0,42,26.78c-.29.24-.46.28-.73-.08-2.24-2.95-4.51-5.89-6.78-8.82q-3-3.88-6-7.76c-.45-.57-.45-.57.15-1A44,44,0,0,1,47.35.77,42.23,42.23,0,0,1,52.61.11c.12,0,.27,0,.35-.11h5a3,3,0,0,0,1.33.19,42.9,42.9,0,0,1,12.6,3A44.47,44.47,0,0,1,99.81,43.7c0,.51.14.64.65.64,3.45,0,6.91,0,10.36,0Z"/><path class="cls-1" d="M58.74,88.55H52.29c-1.11-.14-2.23-.27-3.34-.42A41.76,41.76,0,0,1,41,86.22a43.64,43.64,0,0,1-12.44-6.65,44.65,44.65,0,0,1-9.45-9.81,43.76,43.76,0,0,1-6.68-14.49,40.13,40.13,0,0,1-1.29-8.79c0-.53-.09-1.07-.07-1.6s-.12-.56-.56-.56c-3.19,0-6.39,0-9.58,0H0c.66-.88,1.24-1.65,1.83-2.42l8.86-11.48q5.54-7.2,11.08-14.38c.4-.52.41-.51.8,0q3.56,4.62,7.12,9.25L42.33,41.68c.65.84,1.29,1.7,1.94,2.56a.86.86,0,0,1-.6.09c-3.29,0-6.57,0-9.86,0-.48,0-.59.15-.57.6A22.22,22.22,0,0,0,47.67,65.06a21.59,21.59,0,0,0,7,1.37A21.87,21.87,0,0,0,68.36,62.3c1-.71,1-.72,1.74.26L81.35,77.15c.42.55.81,1.11,1.25,1.63.24.28.15.41-.1.6a45.4,45.4,0,0,1-9.82,5.74,43.71,43.71,0,0,1-10.4,3c-1.07.17-2.15.25-3.23.37C58.94,88.47,58.82,88.45,58.74,88.55Z"/></g></g></svg>